<svg xmlns="http://www.w3.org/2000/svg">
  <symbol id="communication" viewBox="0 0 220 134">
    <g fill="none" stroke="#a33d2c" stroke-width="2"><path d="M57 62h22m-6-5 7 5-7 5M136 62h22m-6-5 7 5-7 5" stroke-dasharray="3 3"/></g>
    <g fill="#f7f5f0" stroke="#555b63" stroke-width="2"><path d="M19 40h23l10 10v32H19Z"/><path d="M42 40v11h10M26 60h18m-18 8h14" fill="none"/><path d="M89 62q20-27 40 0-20 27-40 0Z"/><circle cx="109" cy="62" r="7" fill="#f1ddd6"/></g>
    <g fill="#f1ddd6" stroke="#a33d2c" stroke-width="2"><path d="M170 43h31v23h-18l-7 7v-7h-6Z"/><path d="M181 74h24V55" fill="none"/><path d="M177 51h17m-17 7h12" fill="none"/></g>
    <g fill="#555b63" text-anchor="middle" font-family="Arial, sans-serif" font-size="12"><text x="35" y="108">Write</text><text x="109" y="108">Read</text><text x="186" y="108">Exchange</text></g>
  </symbol>
  <symbol id="no-channel" viewBox="0 0 220 90">
    <g fill="#f7f5f0" stroke="#555b63" stroke-width="2"><circle cx="35" cy="45" r="18"/><circle cx="185" cy="45" r="18"/></g><g fill="#555b63"><circle cx="35" cy="45" r="5"/><circle cx="185" cy="45" r="5"/></g>
    <path d="M59 45h25m52 0h25" fill="none" stroke="#aaa69c" stroke-width="2"/>
    <path d="m100 35 20 20m0-20-20 20" fill="none" stroke="#a33d2c" stroke-width="2"/>
  </symbol>
  <symbol id="side-channel" viewBox="0 0 220 90">
    <g fill="#f7f5f0" stroke="#555b63" stroke-width="2"><circle cx="35" cy="60" r="18"/><circle cx="185" cy="60" r="18"/></g><g fill="#555b63"><circle cx="35" cy="60" r="5"/><circle cx="185" cy="60" r="5"/></g>
    <path d="M35 37V20h48m54 0h48v17" fill="none" stroke="#a33d2c" stroke-width="2" stroke-dasharray="4 4"/>
    <path d="M88 7h43v29H88Z" fill="#f1ddd6" stroke="#a33d2c" stroke-width="2"/><path d="M96 16h27m-27 10h18" fill="none" stroke="#a33d2c" stroke-width="2"/>
    <path d="M62 60h29m38 0h29m-55-7 14 14m0-14-14 14" fill="none" stroke="#aaa69c" stroke-width="2"/>
  </symbol>
  <symbol id="legal-channel" viewBox="0 0 220 90">
    <g fill="#f7f5f0" stroke="#555b63" stroke-width="2"><circle cx="35" cy="45" r="18"/><circle cx="185" cy="45" r="18"/></g><g fill="#555b63"><circle cx="35" cy="45" r="5"/><circle cx="185" cy="45" r="5"/></g>
    <path d="M61 45h29m40 0h29m-7-6 8 6-8 6M68 39l-8 6 8 6" fill="none" stroke="#537064" stroke-width="2"/>
    <rect x="91" y="29" width="38" height="32" rx="4" fill="#e0e8e1" stroke="#537064" stroke-width="2"/><path d="m101 45 6 6 12-13" fill="none" stroke="#537064" stroke-width="2"/>
  </symbol>
  <symbol id="hacking" viewBox="0 0 220 134">
    <path d="M8 13h103v108H8Z" fill="#e8e4db"/>
    <path d="M111 10v112" fill="none" stroke="#8a877f" stroke-width="2" stroke-dasharray="5 5"/>
    <g fill="none" stroke="#8a877f" stroke-width="2"><rect x="101" y="31" width="20" height="17" rx="3" fill="#efebe2"/><path d="M105 31v-5a6 6 0 0 1 12 0v5"/></g>
    <circle cx="29" cy="80" r="15" fill="#f7f5f0" stroke="#555b63" stroke-width="2"/><circle cx="29" cy="80" r="4" fill="#555b63"/>
    <path d="M47 80h108m-8-6 9 6-9 6" fill="none" stroke="#a33d2c" stroke-width="2"/>
    <g fill="none" stroke="#a33d2c" stroke-width="2"><circle cx="67" cy="59" r="6"/><path d="M73 59h18m-6 0v6m6-6v5"/></g>
    <circle cx="182" cy="80" r="23" fill="#f7f5f0" stroke="#555b63" stroke-width="2"/>
    <text x="182" y="85" text-anchor="middle" fill="#555b63" font-family="Arial, sans-serif" font-size="14">Goal</text>
    <g font-family="Arial, sans-serif" font-size="12" text-anchor="middle"><text x="182" y="43" fill="#555b63">Task goal</text><text x="110" y="125" fill="#a33d2c">unauthorized route</text></g>
  </symbol>
  <symbol id="persistence" viewBox="0 0 220 134">
    <g fill="none" stroke="#a33d2c" stroke-width="2"><circle cx="53" cy="27" r="9"/><path d="M53 21v6l5 3M16 68h100m57 0h35m-7-5 7 5-7 5"/><path d="M116 68h57" stroke-dasharray="3 5"/></g>
    <g fill="#f7f5f0" stroke="#8a877f" stroke-width="2"><circle cx="28" cy="68" r="9"/><circle cx="69" cy="68" r="9"/><circle cx="110" cy="68" r="9"/></g>
    <circle cx="183" cy="68" r="12" fill="#f1ddd6" stroke="#a33d2c" stroke-width="2"/>
    <g fill="#555b63" font-family="Arial, sans-serif"><text x="70" y="32" font-size="13">Long horizon</text><text x="28" y="99" text-anchor="middle" font-size="11">Start</text><text x="181" y="99" text-anchor="middle" font-size="11">Much later</text><text x="110" y="123" text-anchor="middle" font-size="11">many steps · same objective</text></g>
  </symbol>
  <symbol id="coordination" viewBox="0 0 220 134">
    <g fill="none" stroke="#a33d2c" stroke-width="2"><path d="M44 67h22V32h22m-7-5 7 5-7 5M66 67v35h22m-7-5 7 5-7 5M142 32h20v35h18m-7-5 7 5-7 5M142 102h20V67"/></g>
    <g fill="#f7f5f0" stroke="#555b63" stroke-width="2"><circle cx="28" cy="67" r="15"/><rect x="90" y="17" width="50" height="30" rx="4"/><rect x="90" y="87" width="50" height="30" rx="4"/></g>
    <circle cx="196" cy="67" r="15" fill="#f1ddd6" stroke="#a33d2c" stroke-width="2"/>
    <g fill="none" stroke="#555b63" stroke-width="2"><path d="M101 28h28m-28 8h18m-18 62h28m-28 8h18"/></g><path d="m190 67 4 4 8-9" fill="none" stroke="#a33d2c" stroke-width="2"/>
  </symbol>
</svg>
